<svg height="496pt" viewBox="0 -3 496.3124 496" width="496pt" xmlns="http://www.w3.org/2000/svg"><path d="m399.140625 10.15625c48.140625-.003906 87.167969 39.019531 87.171875 87.160156s-39.019531 87.167969-87.160156 87.167969c-48.140625.003906-87.167969-39.019531-87.171875-87.15625v-.011719c.007812-48.136718 39.027343-87.15625 87.160156-87.160156zm0 0" fill="#00acea"/><path d="m457.914062 464.144531v16.632813h-96.882812v-38.492188l26.742188-21.828125h26.449218c24.128906 0 43.6875 19.558594 43.691406 43.6875zm0 0" fill="#fedb41"/><path d="m331.113281 248.347656c1.066407-2.203125 2.496094-4.210937 4.230469-5.941406 4.070312-4.085938 9.601562-6.378906 15.367188-6.371094h44.78125c24.015624.007813 43.484374 19.472656 43.488281 43.492188h-88.269531c-.429688 0-.847657-.011719-1.269532-.042969-7.234375-.429687-13.78125-4.4375-17.460937-10.683594-3.675781-6.25-4.003907-13.917969-.867188-20.453125zm0 0" fill="#4b5d63"/><path d="m423.632812 279.527344v63.957031c0 35.324219-28.636718 63.960937-63.960937 63.960937s-63.960937-28.636718-63.960937-63.960937v-38.1875s30.703124 4.929687 53.730468-25.769531v-.042969c.421875.03125.839844.042969 1.269532.042969zm0 0" fill="#f7caa5"/><path d="m387.773438 420.394531v.0625l-26.742188 21.828125-26.898438-21.828125v-.0625l5.070313-16.019531.078125-.257812c14.117188 4.726562 29.441406 4.398437 43.339844-.929688l.070312.167969zm0 0" fill="#edb288"/><path d="m361.03125 442.285156v38.492188h-69.808594v-22.519532c.023438-13.617187-4.351562-26.878906-12.480468-37.800781h55.390624zm0 0" fill="#fedb41"/><path d="m349.441406 279.484375v.042969c-23.027344 30.699218-53.730468 25.769531-53.730468 25.769531v-25.769531s4.351562-31.632813 35.402343-31.179688c-3.136719 6.535156-2.8125 14.203125.867188 20.453125 3.675781 6.246094 10.226562 10.253907 17.460937 10.683594zm0 0" fill="#4b5d63"/><path d="m288.980469 166.636719c19.265625 13.167969 24.242187 39.4375 11.136719 58.738281-13.105469 19.304688-39.359376 24.367188-58.703126 11.320312v-17.199218c.023438-14.953125-3.582031-29.6875-10.5-42.941406l.179688-.097657c13.523438-18.296875 39.085938-22.632812 57.886719-9.820312zm0 0" fill="#4b5d63"/><path d="m291.222656 458.257812v22.519532h-142.089844v-46.632813l34.328126-39.367187h44.28125c35.058593-.003906 63.480468 28.414062 63.480468 63.472656zm0 0" fill="#00efd1"/><path d="m178.902344 370.765625c-28.414063 9.84375-59.832032 5.332031-84.324219-12.109375-24.496094-17.4375-39.039063-45.652344-39.035156-75.71875v-45.859375c5.621093 1.4375 104.097656 25.519531 146.460937-47.660156 0 0 7.886719 31.558593 39.410156 47.46875v46.050781c-.015624 39.597656-25.101562 74.84375-62.511718 87.828125zm0 0" fill="#f7caa5"/><path d="m241.414062 236.695312v.191407c-31.523437-15.910157-39.410156-47.46875-39.410156-47.46875-42.363281 73.179687-140.839844 49.097656-146.460937 47.660156v-17.582031c-.007813-51.328125 41.59375-92.941406 92.917969-92.949219 51.328124-.007813 92.941406 41.59375 92.953124 92.917969zm0 0" fill="#4b5d63"/><path d="m183.460938 394.726562v.050782l-34.328126 39.367187-31.921874-39.367187v-.050782l4.582031-22.582031.050781-.160156c18.679688 5.5625 38.632812 5.136719 57.058594-1.21875zm0 0" fill="#edb288"/><path d="m149.132812 434.144531v46.632813h-139.441406v-22.519532c0-35.058593 28.421875-63.480468 63.480469-63.480468h44.039063zm0 0" fill="#00efd1"/><g fill="#083863"><path d="m135.003906 282.085938v-3.96875c0-5.523438-4.480468-10-10-10-5.523437 0-10 4.476562-10 10v3.96875c0 3.3125-2.6875 6-6 6-3.316406 0-6-2.6875-6-6v-3.96875c0-5.523438-4.480468-10-10-10-5.523437 0-10 4.476562-10 10v3.96875c-.015625 6.871093 2.707032 13.460937 7.570313 18.316406 7.453125 7.375 18.597656 9.570312 28.289062 5.574218 9.691407-3.996093 16.050781-13.40625 16.140625-23.890624zm0 0"/><path d="m188.128906 307.945312c14.277344-.011718 25.851563-11.582031 25.875-25.859374v-3.96875c0-5.523438-4.480468-10-10-10-5.523437 0-10 4.476562-10 10v3.96875c-.011718 3.238281-2.636718 5.859374-5.875 5.859374-1.585937.007813-3.113281-.601562-4.261718-1.699218-1.144532-1.085938-1.8125-2.582032-1.863282-4.160156v-3.96875c0-5.523438-4.480468-10-10-10-5.523437 0-10 4.476562-10 10v3.96875c.121094 14.335937 11.789063 25.882812 26.125 25.859374zm0 0"/><path d="m414.222656 410.464844h-18.976562l-.367188-1.851563c23.941406-12.949219 38.933594-37.90625 39.125-65.128906v-54.019531h4.976563c5.410156.117187 9.886719-4.175782 10-9.585938 0-.054687 0-.113281 0-.167968-.050781-29.460938-23.976563-53.300782-53.4375-53.246094h-44.832031c-8.394532-.101563-16.480469 3.171875-22.441407 9.085937-1 .976563-1.9375 2.023438-2.796875 3.128907-27.230468 2.601562-37.722656 26.457031-39.523437 39.539062-.015625.4375.003906.875.054687 1.308594v63.957031c-.109375 19.609375 7.640625 38.441406 21.511719 52.292969 5.707031 5.71875 12.308594 10.464844 19.546875 14.050781l-.273438.636719h-43.253906c-13.882812-16-34.367187-26-55.792968-26h-35.992188l-1.480469-7.597656c37.035157-16.550782 60.839844-53.367188 60.734375-93.929688v-30.8125c4.519532 1.171875 9.164063 1.78125 13.835938 1.8125 22.9375.109375 43.273437-14.738281 50.160156-36.621094 6.886719-21.882812-1.28125-45.695312-20.148438-58.746094-18.867187-13.050781-44.035156-12.289062-62.078124 1.875-25.671876-36.828124-72.300782-52.691406-115.101563-39.15625-42.800781 13.53125-71.835937 53.316407-71.667969 98.207032v63.441406c-.152344 22.375 7.074219 44.179688 20.5625 62.035156 11.320313 14.898438 26.476563 26.4375 43.84375 33.390625l-1.382812 6.101563h-35.855469c-40.515625 0-73.16796875 33.273437-73.16796875 73.792968v22.519532c-.12109425 5.234375 4.02734375 9.570312 9.26171875 9.6875h.425781 448.222656c5.417969.152344 9.9375-4.117188 10.089844-9.539063v-16.78125c-.078125-29.652343-24.128906-53.65625-53.78125-53.679687zm-83.636718 20 20.417968 16.585937v23.414063h-50v-12.207032c.066406-9.515624-1.707031-18.949218-5.21875-27.792968zm30.425781-1.074219-15.308594-12.425781.257813-.816406c9.914062 1.871093 20.109374 1.695312 29.953124-.515626l.382813 1.277344zm-10.300781-182.925781h44.78125c14.984374 0 27.699218 9 31.964843 23h-76.746093c-.1875 0-.375.03125-.5625.015625-.046876 0-.089844.007812-.136719.007812-3.867188-.230469-7.367188-2.351562-9.363281-5.671875-1.992188-3.320312-2.222657-7.410156-.609376-10.929687.070313-.140625.140626-.28125.207032-.425781.566406-1.035157 1.300781-1.96875 2.167968-2.765626 2.21875-2.152343 5.210938-3.316406 8.296876-3.230468zm-31.445313 14.402344c.914063 9.074218 5.679687 17.320312 13.082031 22.648437-7.488281 6.347656-16.625 10.4375-26.34375 11.792969v-14.960938c0-3.136718 3.167969-14.402344 13.261719-19.480468zm-13.261719 82.617187v-28.117187c2.75-.28125 5.488282-.703126 8.199219-1.265626-1.921875 1.824219-3.066406 4.320313-3.199219 6.964844v2.730469c.0625 5.578125 2.351563 10.902344 6.359375 14.789063 3.898438 3.9375 9.214844 6.144531 14.753907 6.128906 11.542968-.015625 20.886718-9.378906 20.886718-20.917969v-2.730469c0-5.523437-4.480468-10-10-10-5.523437 0-10 4.476563-10 10v2.730469c0 .507813-.265625.917969-.773437.917969-.296875.011718-.59375-.09375-.820313-.289063-.117187-.113281-.40625-.316406-.40625-.628906v-2.730469c.097656-4.582031-2.988281-8.625-7.433594-9.746094 12.019532-4.367187 22.621094-11.921874 30.675782-21.855468h59.757812v54.019531c0 29.824219-24.179687 54-54 54-29.824218 0-54-24.175781-54-54zm-35.398437 82.78125c6.828125 9.261719 10.472656 20.484375 10.398437 31.992187v12.207032h-122v-32.570313l29.007813-33.429687h39.730469c16.953124-.007813 32.886718 8.09375 42.863281 21.800781zm-141.039063-42.140625c13.757813 2.558594 27.894532 2.292969 41.550782-.777344l1.621093 8.511719-23.328125 26.75-21.46875-26.476563zm153.78125-209.226562c14.691406 10.125 18.410156 30.238281 8.308594 44.945312-9.042969 13.269531-25.652344 17.683594-40.652344 11.066406v-11.414062c.058594-14.183594-2.804687-28.226563-8.417968-41.253906 11.09375-10.59375 28.085937-11.988282 40.761718-3.34375zm-193.285156-14.050782c18.652344-18.679687 45.089844-27.34375 71.179688-23.328125 26.085937 4.019531 48.695312 20.238281 60.859374 43.660157l-.023437.007812c5.894531 11.355469 9.085937 23.917969 9.324219 36.710938-9.132813-8.421876-15.917969-19.074219-19.691406-30.90625-.984376-3.957032-4.273438-6.917969-8.308594-7.484376-4.039063-.570312-8.015625 1.367188-10.054688 4.898438-15.957031 27.570312-42.414062 43.339844-79.082031 46.867188-16.113281 1.472656-32.355469.707031-48.261719-2.273438v-9.5c-.148437-21.984375 8.515625-43.105469 24.058594-58.652344zm-7.546875 172.058594c-10.847656-14.386719-16.652344-31.949219-16.511719-49.96875v-33.65625c10.863282 1.800781 21.859375 2.707031 32.875 2.714844 5.523438 0 11.222656-.238282 17.191406-.8125 35.660157-3.433594 64.0625-17.601563 83.6875-41.285156 7.601563 13.320312 18.324219 24.597656 31.246094 32.859374v40.179688c.195313 35.589844-22.457031 67.292969-56.1875 78.644531-33.730468 11.351563-70.9375-.210937-92.300781-28.675781zm-62.511719 125.351562c0-29.492187 23.679688-53.792968 53.167969-53.792968h39.273437l26.558594 33.226562v32.773438h-119zm428 12.207032h-77v-23.433594l20.332032-16.566406h22.886718c18.613282.011718 33.714844 15.070312 33.78125 33.679687zm0 0"/><path d="m387.027344 344.714844c11.558594-.007813 20.933594-9.359375 20.976562-20.917969v-2.730469c0-5.523437-4.480468-10-10-10-5.523437 0-10 4.476563-10 10v2.730469c-.03125.515625-.457031.921875-.976562.917969-.269532.007812-.53125-.097656-.71875-.289063-.1875-.160156-.296875-.386719-.304688-.628906v-2.730469c0-5.523437-4.480468-10-10-10-5.523437 0-10 4.476563-10 10v2.730469c.050782 11.574219 9.449219 20.925781 21.023438 20.917969zm0 0"/><path d="m399.140625.15625c-53.660156.003906-97.160156 43.507812-97.160156 97.171875.003906 53.660156 43.507812 97.160156 97.171875 97.15625 53.664062 0 97.164062-43.503906 97.160156-97.167969-.0625-53.640625-43.53125-97.105468-97.171875-97.160156zm0 174.328125c-42.613281 0-77.160156-34.550781-77.160156-77.164063.003906-42.617187 34.550781-77.164062 77.164062-77.164062 42.617188 0 77.164063 34.542969 77.167969 77.160156.003906 42.621094-34.550781 77.171875-77.171875 77.167969zm0 0"/><path d="m433.074219 94.464844h-29.070313v-40.757813c0-5.523437-4.480468-10-10-10-5.523437 0-10 4.476563-10 10v50.878907c.152344 5.558593 4.742188 9.960937 10.296875 9.878906h38.773438c5.519531 0 10-4.476563 10-10 0-5.523438-4.480469-10-10-10zm0 0"/></g></svg>